<mxfile modified="2023-05-26T07:52:20.563Z" host="app.diagrams.net" agent="Mozilla/5.0 (Windows NT 10.0; Win64; x64) AppleWebKit/537.36 (KHTML, like Gecko) Chrome/113.0.0.0 Safari/537.36" etag="ZCQgDKGU87dlb16-Jysx" version="21.3.4" type="device">
  <diagram id="f106602c-feb2-e66a-4537-3a34d633f6aa" name="Page-1">
    <mxGraphModel dx="2954" dy="1067" grid="1" gridSize="10" guides="1" tooltips="1" connect="1" arrows="1" fold="1" page="1" pageScale="1" pageWidth="1169" pageHeight="827" background="none" math="0" shadow="0">
      <root>
        <mxCell id="0" />
        <mxCell id="1" parent="0" />
        <mxCell id="14" value="" style="fillColor=#F6F6F6;strokeColor=none;shadow=0;gradientColor=none;fontSize=14;align=left;spacing=10;fontColor=#717171;9E9E9E;verticalAlign=top;spacingTop=-4;fontStyle=0;spacingLeft=40;html=1;" parent="1" vertex="1">
          <mxGeometry x="120" y="40" width="1090" height="730" as="geometry" />
        </mxCell>
        <mxCell id="ntsdVXRBKPIUhT7EjkVt-738" value="&lt;font color=&quot;#007fff&quot;&gt;&lt;span style=&quot;font-size: 13px;&quot;&gt;&lt;b&gt;order-svc&lt;span style=&quot;white-space: pre;&quot;&gt; &lt;/span&gt;&lt;/b&gt;&lt;/span&gt;&lt;/font&gt;" style="rounded=1;absoluteArcSize=1;arcSize=2;html=1;strokeColor=#4284F3;gradientColor=none;shadow=0;fontSize=12;fontColor=#9E9E9E;align=center;verticalAlign=top;spacing=10;spacingTop=-4;fillColor=none;strokeWidth=2;" parent="14" vertex="1">
          <mxGeometry x="30" y="235" width="140" height="40" as="geometry" />
        </mxCell>
        <mxCell id="oemSeby-IIEr8AhxXEn--809" value="&lt;font color=&quot;#007fff&quot;&gt;&lt;span style=&quot;font-size: 13px;&quot;&gt;&lt;b&gt;payment-svc&lt;/b&gt;&lt;/span&gt;&lt;/font&gt;" style="rounded=1;absoluteArcSize=1;arcSize=2;html=1;strokeColor=#4284F3;gradientColor=none;shadow=0;fontSize=12;fontColor=#9E9E9E;align=center;verticalAlign=top;spacing=10;spacingTop=-4;fillColor=none;strokeWidth=2;" parent="14" vertex="1">
          <mxGeometry x="475" y="235" width="140" height="40" as="geometry" />
        </mxCell>
        <mxCell id="oemSeby-IIEr8AhxXEn--810" value="&lt;font color=&quot;#007fff&quot;&gt;&lt;span style=&quot;font-size: 13px;&quot;&gt;&lt;b&gt;product-svc&lt;/b&gt;&lt;/span&gt;&lt;/font&gt;" style="rounded=1;absoluteArcSize=1;arcSize=2;html=1;strokeColor=#4284F3;gradientColor=none;shadow=0;fontSize=12;fontColor=#9E9E9E;align=center;verticalAlign=top;spacing=10;spacingTop=-4;fillColor=none;strokeWidth=2;" parent="14" vertex="1">
          <mxGeometry x="920" y="235" width="140" height="40" as="geometry" />
        </mxCell>
        <mxCell id="oemSeby-IIEr8AhxXEn--822" value="" style="edgeStyle=orthogonalEdgeStyle;rounded=0;orthogonalLoop=1;jettySize=auto;html=1;entryX=0;entryY=0.5;entryDx=0;entryDy=0;entryPerimeter=0;" parent="14" source="ntsdVXRBKPIUhT7EjkVt-738" target="oemSeby-IIEr8AhxXEn--811" edge="1">
          <mxGeometry relative="1" as="geometry">
            <mxPoint x="280" y="255" as="targetPoint" />
          </mxGeometry>
        </mxCell>
        <mxCell id="oemSeby-IIEr8AhxXEn--811" value="" style="verticalLabelPosition=bottom;html=1;verticalAlign=top;align=center;strokeColor=none;fillColor=#00BEF2;shape=mxgraph.azure.queue_generic;pointerEvents=1;fillStyle=solid;" parent="14" vertex="1">
          <mxGeometry x="300" y="240" width="70" height="30" as="geometry" />
        </mxCell>
        <mxCell id="oemSeby-IIEr8AhxXEn--823" value="" style="edgeStyle=orthogonalEdgeStyle;rounded=0;orthogonalLoop=1;jettySize=auto;html=1;exitX=1;exitY=0.51;exitDx=0;exitDy=0;exitPerimeter=0;entryX=0;entryY=0.5;entryDx=0;entryDy=0;" parent="14" source="oemSeby-IIEr8AhxXEn--811" target="oemSeby-IIEr8AhxXEn--809" edge="1">
          <mxGeometry relative="1" as="geometry">
            <mxPoint x="380" y="254.60000000000002" as="sourcePoint" />
            <mxPoint x="460" y="255" as="targetPoint" />
          </mxGeometry>
        </mxCell>
        <mxCell id="oemSeby-IIEr8AhxXEn--825" value="payment" style="verticalLabelPosition=bottom;html=1;verticalAlign=top;align=center;strokeColor=none;fillColor=#00BEF2;shape=mxgraph.azure.queue_generic;pointerEvents=1;fillStyle=solid;" parent="14" vertex="1">
          <mxGeometry x="300" y="240" width="70" height="30" as="geometry" />
        </mxCell>
        <mxCell id="oemSeby-IIEr8AhxXEn--826" value="" style="edgeStyle=orthogonalEdgeStyle;rounded=0;orthogonalLoop=1;jettySize=auto;html=1;entryX=0;entryY=0.5;entryDx=0;entryDy=0;exitX=1;exitY=0.51;exitDx=0;exitDy=0;exitPerimeter=0;" parent="14" source="oemSeby-IIEr8AhxXEn--828" target="oemSeby-IIEr8AhxXEn--810" edge="1">
          <mxGeometry relative="1" as="geometry">
            <mxPoint x="820" y="255" as="sourcePoint" />
            <mxPoint x="910" y="255" as="targetPoint" />
          </mxGeometry>
        </mxCell>
        <mxCell id="oemSeby-IIEr8AhxXEn--827" value="" style="edgeStyle=orthogonalEdgeStyle;rounded=0;orthogonalLoop=1;jettySize=auto;html=1;entryX=0;entryY=0.5;entryDx=0;entryDy=0;entryPerimeter=0;" parent="14" target="oemSeby-IIEr8AhxXEn--828" edge="1">
          <mxGeometry relative="1" as="geometry">
            <mxPoint x="615" y="255" as="sourcePoint" />
            <mxPoint x="725" y="255" as="targetPoint" />
          </mxGeometry>
        </mxCell>
        <mxCell id="oemSeby-IIEr8AhxXEn--828" value="product" style="verticalLabelPosition=bottom;html=1;verticalAlign=top;align=center;strokeColor=none;fillColor=#00BEF2;shape=mxgraph.azure.queue_generic;pointerEvents=1;fillStyle=solid;" parent="14" vertex="1">
          <mxGeometry x="745" y="240" width="70" height="30" as="geometry" />
        </mxCell>
        <mxCell id="oemSeby-IIEr8AhxXEn--829" value="order-update" style="verticalLabelPosition=bottom;html=1;verticalAlign=top;align=center;strokeColor=none;fillColor=#00BEF2;shape=mxgraph.azure.queue_generic;pointerEvents=1;fillStyle=solid;" parent="14" vertex="1">
          <mxGeometry x="50" y="385" width="70" height="30" as="geometry" />
        </mxCell>
        <mxCell id="oemSeby-IIEr8AhxXEn--832" value="payment-update" style="verticalLabelPosition=bottom;html=1;verticalAlign=top;align=center;strokeColor=none;fillColor=#00BEF2;shape=mxgraph.azure.queue_generic;pointerEvents=1;fillStyle=solid;" parent="14" vertex="1">
          <mxGeometry x="510" y="385" width="70" height="30" as="geometry" />
        </mxCell>
        <mxCell id="oemSeby-IIEr8AhxXEn--834" value="" style="edgeStyle=orthogonalEdgeStyle;rounded=0;orthogonalLoop=1;jettySize=auto;html=1;exitX=0.5;exitY=1;exitDx=0;exitDy=0;entryX=1;entryY=0.51;entryDx=0;entryDy=0;entryPerimeter=0;" parent="14" source="oemSeby-IIEr8AhxXEn--810" target="oemSeby-IIEr8AhxXEn--829" edge="1">
          <mxGeometry relative="1" as="geometry">
            <mxPoint x="990" y="315" as="sourcePoint" />
            <mxPoint x="670" y="400" as="targetPoint" />
            <Array as="points">
              <mxPoint x="990" y="505" />
              <mxPoint x="120" y="505" />
            </Array>
          </mxGeometry>
        </mxCell>
        <mxCell id="oemSeby-IIEr8AhxXEn--839" value="" style="edgeStyle=orthogonalEdgeStyle;rounded=0;orthogonalLoop=1;jettySize=auto;html=1;entryX=1;entryY=0.51;entryDx=0;entryDy=0;entryPerimeter=0;strokeColor=#FF0000;exitX=0.356;exitY=1.025;exitDx=0;exitDy=0;exitPerimeter=0;" parent="14" source="oemSeby-IIEr8AhxXEn--810" target="oemSeby-IIEr8AhxXEn--832" edge="1">
          <mxGeometry relative="1" as="geometry">
            <mxPoint x="970" y="315" as="sourcePoint" />
            <mxPoint x="760" y="500" as="targetPoint" />
            <Array as="points">
              <mxPoint x="970" y="400" />
            </Array>
          </mxGeometry>
        </mxCell>
        <mxCell id="oemSeby-IIEr8AhxXEn--840" value="" style="edgeStyle=orthogonalEdgeStyle;rounded=0;orthogonalLoop=1;jettySize=auto;html=1;strokeColor=#FF0000;entryX=0.5;entryY=1;entryDx=0;entryDy=0;" parent="14" target="oemSeby-IIEr8AhxXEn--809" edge="1">
          <mxGeometry relative="1" as="geometry">
            <mxPoint x="545" y="385" as="sourcePoint" />
            <mxPoint x="545" y="315" as="targetPoint" />
            <Array as="points" />
          </mxGeometry>
        </mxCell>
        <mxCell id="oemSeby-IIEr8AhxXEn--841" value="" style="rounded=0;orthogonalLoop=1;jettySize=auto;html=1;strokeColor=#FF0000;edgeStyle=orthogonalEdgeStyle;entryX=1;entryY=0.51;entryDx=0;entryDy=0;entryPerimeter=0;" parent="14" target="oemSeby-IIEr8AhxXEn--829" edge="1">
          <mxGeometry relative="1" as="geometry">
            <mxPoint x="490" y="275" as="sourcePoint" />
            <mxPoint x="150" y="360" as="targetPoint" />
            <Array as="points">
              <mxPoint x="490" y="275" />
              <mxPoint x="490" y="360" />
            </Array>
          </mxGeometry>
        </mxCell>
        <mxCell id="oemSeby-IIEr8AhxXEn--844" value="" style="edgeStyle=orthogonalEdgeStyle;rounded=0;orthogonalLoop=1;jettySize=auto;html=1;exitX=0.5;exitY=0;exitDx=0;exitDy=0;exitPerimeter=0;entryX=0.393;entryY=1.065;entryDx=0;entryDy=0;entryPerimeter=0;" parent="14" source="oemSeby-IIEr8AhxXEn--829" target="ntsdVXRBKPIUhT7EjkVt-738" edge="1">
          <mxGeometry relative="1" as="geometry">
            <mxPoint x="60" y="325" as="sourcePoint" />
            <mxPoint x="140" y="325" as="targetPoint" />
          </mxGeometry>
        </mxCell>
        <mxCell id="oemSeby-IIEr8AhxXEn--846" value="" style="rounded=0;orthogonalLoop=1;jettySize=auto;html=1;strokeColor=#FF0000;edgeStyle=orthogonalEdgeStyle;entryX=1;entryY=0.51;entryDx=0;entryDy=0;entryPerimeter=0;" parent="14" edge="1">
          <mxGeometry relative="1" as="geometry">
            <mxPoint x="490" y="315" as="sourcePoint" />
            <mxPoint x="120" y="400" as="targetPoint" />
            <Array as="points">
              <mxPoint x="490" y="315" />
              <mxPoint x="490" y="400" />
            </Array>
          </mxGeometry>
        </mxCell>
        <mxCell id="oemSeby-IIEr8AhxXEn--853" value="&lt;b&gt;make payment&lt;/b&gt;" style="text;html=1;align=center;verticalAlign=middle;resizable=0;points=[];autosize=1;strokeColor=none;fillColor=none;" parent="14" vertex="1">
          <mxGeometry x="185" y="225" width="110" height="30" as="geometry" />
        </mxCell>
        <mxCell id="oemSeby-IIEr8AhxXEn--854" value="&lt;b&gt;sell product&lt;/b&gt;" style="text;html=1;align=center;verticalAlign=middle;resizable=0;points=[];autosize=1;strokeColor=none;fillColor=none;" parent="14" vertex="1">
          <mxGeometry x="635" y="225" width="90" height="30" as="geometry" />
        </mxCell>
        <mxCell id="oemSeby-IIEr8AhxXEn--855" value="&lt;b&gt;complete order&lt;/b&gt;" style="text;html=1;align=center;verticalAlign=middle;resizable=0;points=[];autosize=1;strokeColor=none;fillColor=none;" parent="14" vertex="1">
          <mxGeometry x="475" y="475" width="110" height="30" as="geometry" />
        </mxCell>
        <mxCell id="oemSeby-IIEr8AhxXEn--856" value="&lt;b&gt;&lt;font color=&quot;#ff0000&quot;&gt;compensate payment&lt;/font&gt;&lt;/b&gt;" style="text;html=1;align=center;verticalAlign=middle;resizable=0;points=[];autosize=1;strokeColor=none;fillColor=none;" parent="14" vertex="1">
          <mxGeometry x="695" y="365" width="150" height="30" as="geometry" />
        </mxCell>
        <mxCell id="oemSeby-IIEr8AhxXEn--857" value="&lt;b&gt;&lt;font color=&quot;#ff0000&quot;&gt;compensate order&lt;/font&gt;&lt;/b&gt;" style="text;html=1;align=center;verticalAlign=middle;resizable=0;points=[];autosize=1;strokeColor=none;fillColor=none;" parent="14" vertex="1">
          <mxGeometry x="240" y="365" width="130" height="30" as="geometry" />
        </mxCell>
        <mxCell id="WtrhPSEaeqkxhUeow5XS-18" value="&lt;font style=&quot;font-size: 14px;&quot;&gt;Process Order&lt;/font&gt;" style="text;strokeColor=none;fillColor=none;html=1;fontSize=24;fontStyle=1;verticalAlign=middle;align=center;" vertex="1" parent="14">
          <mxGeometry x="10" y="10" width="120" height="40" as="geometry" />
        </mxCell>
      </root>
    </mxGraphModel>
  </diagram>
</mxfile>
